<svg xmlns="http://www.w3.org/2000/svg" xmlns:xlink="http://www.w3.org/1999/xlink" width="1080" zoomAndPan="magnify" viewBox="0 0 810 809.999993" height="1080" preserveAspectRatio="xMidYMid meet" version="1.0"><defs><g/></defs><rect x="-81" width="972" fill="#ffffff" y="-80.999999" height="971.999992" fill-opacity="1"/><rect x="-81" width="972" fill="#fefefe" y="-80.999999" height="971.999992" fill-opacity="1"/><path stroke-linecap="butt" transform="matrix(1.31943, 0, 0, 1.31943, 11.390628, 262.416921)" fill="none" stroke-linejoin="miter" d="M 3.600037 116.013256 C 7.11126 115.761609 9.627735 115.418184 11.152423 114.988903 C 12.67415 114.541858 13.725149 113.644809 14.31134 112.297755 C 14.915294 110.932937 15.220231 108.688833 15.220231 105.565444 L 15.220231 48.524355 C 15.220231 45.400965 14.915294 43.168704 14.31134 41.821649 C 13.725149 40.456832 12.691914 39.54794 11.208674 39.100896 C 9.725434 38.650891 7.191195 38.310426 3.600037 38.076542 L 3.600037 35.089338 L 38.721148 35.089338 L 38.721148 38.076542 C 35.12999 38.310426 32.595751 38.650891 31.112511 39.100896 C 29.629271 39.54794 28.584194 40.456832 27.98024 41.821649 C 27.394049 43.168704 27.100954 45.400965 27.100954 48.524355 L 27.100954 77.762835 L 61.1385 46.824994 C 62.663188 45.4809 63.424052 44.124964 63.424052 42.757186 C 63.424052 40.045314 60.105265 38.485099 53.470653 38.076542 L 53.470653 35.089338 L 85.841404 35.089338 L 85.841404 38.076542 C 82.487091 38.408125 79.724889 39.168989 77.55776 40.359133 C 75.411355 41.549278 72.379742 43.947331 68.457002 47.559213 L 45.539315 68.161742 L 78.028489 108.931599 C 79.958773 111.332612 82.075573 113.117829 84.378888 114.28725 C 86.699966 115.438908 88.659856 116.013256 90.261518 116.013256 L 90.261518 119.00046 L 54.788101 119.00046 L 54.788101 116.013256 C 60.700337 115.681674 63.657936 114.201394 63.657936 111.566497 C 63.657936 110.044769 62.817137 108.209223 61.1385 106.062818 L 36.935931 76.211502 L 27.100954 84.962914 L 27.100954 105.565444 C 27.100954 108.688833 27.394049 110.932937 27.98024 112.297755 C 28.584194 113.644809 29.647035 114.541858 31.168762 114.988903 C 32.690489 115.418184 35.209925 115.761609 38.721148 116.013256 L 38.721148 119.00046 L 3.600037 119.00046 Z M 91.451663 116.013256 C 94.729002 115.681674 96.905013 115.098443 97.976735 114.257645 C 99.069181 113.419807 99.616885 111.927685 99.616885 109.78128 L 99.616885 48.992123 C 99.616885 47.54737 99.332671 46.534859 98.767204 45.948669 C 98.219501 45.344714 97.26324 45.039777 95.898423 45.039777 L 91.451663 45.039777 L 91.451663 42.641724 L 106.435052 33.274516 L 110.153514 33.274516 L 110.153514 109.78128 C 110.153514 111.927685 110.689375 113.419807 111.761097 114.257645 C 112.853544 115.098443 114.999949 115.681674 118.200313 116.013256 L 118.200313 119.00046 L 91.451663 119.00046 Z M 161.705726 112.883945 C 154.348737 117.99387 147.717085 120.551793 141.804849 120.551793 C 136.768939 120.551793 132.807711 119.459347 129.921166 117.274454 C 127.052384 115.068838 125.619474 111.889198 125.619474 107.732573 C 125.619474 103.652923 127.120477 100.277885 130.125444 97.604501 C 133.130412 94.931116 137.168614 92.814316 142.243012 91.254102 C 147.314449 89.693887 153.72406 88.269858 161.471842 86.982015 L 161.471842 79.811542 C 161.471842 75.323334 160.847164 72.182181 159.597808 70.385122 C 158.369176 68.591023 156.116191 67.693974 152.838852 67.693974 C 145.970356 67.693974 141.813731 70.610124 140.368978 76.445386 C 139.335743 80.288192 137.334405 82.209594 134.370886 82.209594 C 131.26822 82.209594 129.716887 80.406614 129.716887 76.794732 C 129.716887 74.473654 130.690911 72.259156 132.641919 70.151238 C 134.592928 68.025556 137.364011 66.329156 140.955169 65.059076 C 144.56409 63.771233 148.729597 63.128792 153.451688 63.128792 C 165.918602 63.128792 172.153539 68.765696 172.153539 80.045426 L 172.153539 108.200341 C 172.153539 110.444445 172.467358 112.093476 173.092036 113.147435 C 173.734477 114.18067 174.69962 114.698768 175.987463 114.698768 C 177.257542 114.698768 178.72894 114.248763 180.407577 113.351714 L 180.407577 117.683011 C 177.77268 119.438623 174.661132 120.317909 171.069974 120.317909 C 168.591986 120.317909 166.534398 119.702113 164.894248 118.473481 C 163.257059 117.224125 162.194219 115.361933 161.705726 112.883945 Z M 161.471842 91.547197 C 153.392477 92.737342 147.314449 94.415979 143.23776 96.580147 C 139.178833 98.747276 137.150851 101.986128 137.150851 106.296702 C 137.150851 109.008574 137.920596 111.048399 139.463047 112.416177 C 141.023262 113.760271 143.08085 114.435278 145.638773 114.435278 C 150.203955 114.435278 155.482632 112.356966 161.471842 108.200341 Z M 224.65017 76.560848 C 223.439301 76.560848 222.453435 76.326964 221.692571 75.859195 C 220.952432 75.370703 220.055382 74.60984 219.001423 73.576604 C 218.299771 72.777254 217.624763 72.161457 216.982322 71.732176 C 216.33692 71.285132 215.614544 71.060129 214.815193 71.060129 C 213.293466 71.060129 211.653316 71.578227 209.897705 72.611462 C 208.142093 73.644697 206.620366 75.157543 205.332523 77.147039 L 205.332523 109.78128 C 205.332523 111.927685 205.868384 113.419807 206.943067 114.257645 C 208.035513 115.098443 210.181918 115.681674 213.382282 116.013256 L 213.382282 119.00046 L 186.630672 119.00046 L 186.630672 116.013256 C 189.908011 115.681674 192.084022 115.098443 193.158704 114.257645 C 194.251151 113.419807 194.795894 111.927685 194.795894 109.78128 L 194.795894 78.843439 C 194.795894 77.401647 194.51464 76.386175 193.949174 75.799984 C 193.40147 75.19603 192.44521 74.894053 191.080392 74.894053 L 186.630672 74.894053 L 186.630672 72.49304 L 201.617021 63.128792 L 205.332523 63.128792 L 205.332523 71.060129 C 207.419717 68.582142 209.897705 66.640015 212.766486 65.23671 C 215.655992 63.830444 218.492207 63.128792 221.284014 63.128792 C 224.404443 63.128792 226.728482 63.830444 228.250209 65.23671 C 229.771937 66.640015 230.5328 68.377863 230.5328 70.444333 C 230.5328 72.356854 229.985097 73.860818 228.892651 74.953264 C 227.820928 76.024987 226.405781 76.560848 224.65017 76.560848 Z M 248.370168 36.992978 C 250.457362 36.992978 252.153762 37.656143 253.462329 38.982473 C 254.78866 40.308804 255.451825 41.928229 255.451825 43.840751 C 255.451825 45.676297 254.78866 47.254275 253.462329 48.583566 C 252.153762 49.889172 250.457362 50.543456 248.370168 50.543456 C 246.300737 50.543456 244.604337 49.889172 243.275046 48.583566 C 241.96944 47.254275 241.315156 45.676297 241.315156 43.840751 C 241.315156 41.928229 241.96944 40.308804 243.275046 38.982473 C 244.604337 37.656143 246.300737 36.992978 248.370168 36.992978 Z M 234.701267 116.013256 C 237.978606 115.681674 240.154617 115.098443 241.226339 114.257645 C 242.318785 113.419807 242.866489 111.927685 242.866489 109.78128 L 242.866489 78.843439 C 242.866489 77.401647 242.582275 76.386175 242.016808 75.799984 C 241.472066 75.19603 240.515805 74.894053 239.148027 74.894053 L 234.701267 74.894053 L 234.701267 72.49304 L 249.684656 63.128792 L 253.403118 63.128792 L 253.403118 109.78128 C 253.403118 111.927685 253.938979 113.419807 255.013662 114.257645 C 256.106108 115.098443 258.252514 115.681674 261.449917 116.013256 L 261.449917 119.00046 L 234.701267 119.00046 Z M 299.803958 118.035318 C 298.362166 118.677759 296.662805 119.21362 294.711797 119.642901 C 292.760788 120.092906 290.818662 120.317909 288.888377 120.317909 C 284.497869 120.317909 281.06362 119.26395 278.585632 117.156032 C 276.107645 115.030351 274.870131 111.409587 274.870131 106.296702 L 274.870131 69.861103 L 266.849977 69.861103 L 266.849977 67.341667 C 271.31746 65.742966 274.662892 63.341952 276.889232 60.141588 C 279.133336 56.944184 280.740919 52.63065 281.717904 47.206906 L 285.433405 47.206906 L 285.433405 64.943615 L 299.803958 64.943615 L 299.803958 69.861103 L 285.433405 69.861103 L 285.433405 106.415124 C 285.433405 109.283906 285.972227 111.400705 287.043949 112.765523 C 288.118632 114.133301 289.892007 114.81423 292.369995 114.81423 C 294.847983 114.81423 297.32597 114.325738 299.803958 113.351714 Z M 329.294086 129.537089 C 325.782863 138.412845 320.193328 142.853683 312.522519 142.853683 C 309.245181 142.853683 306.48594 142.152031 304.241836 140.745765 C 301.997732 139.360224 300.875681 137.545401 300.875681 135.301298 C 300.875681 133.77957 301.441147 132.462122 302.572081 131.351912 C 303.685251 130.238742 305.079674 129.682157 306.758311 129.682157 C 307.96918 129.682157 308.92248 129.916041 309.627093 130.383809 C 310.349469 130.872301 311.276124 131.671652 312.407058 132.784822 C 313.10871 133.664108 313.801481 134.336155 314.48537 134.803924 C 315.166298 135.292416 315.947886 135.535182 316.827172 135.535182 C 318.348899 135.535182 319.764046 134.795042 321.069653 133.311802 C 322.395983 131.849286 323.538759 129.877554 324.49502 127.399566 L 327.245379 120.317909 L 311.323493 78.346065 C 310.269534 75.557218 309.40209 73.529236 308.718201 72.259156 C 308.055036 70.971313 307.196474 69.967683 306.142515 69.245307 C 305.10928 68.52293 303.676369 68.084768 301.840823 67.927858 L 301.840823 64.943615 L 328.210521 64.943615 L 328.210521 67.927858 C 325.578584 68.084768 323.713432 68.484443 322.620986 69.126884 C 321.549264 69.772286 321.010442 70.728547 321.010442 71.995666 C 321.010442 73.049625 321.575909 75.166425 322.709803 78.346065 L 333.128009 105.947356 L 344.162013 78.346065 C 345.041299 76.122685 345.479461 74.328586 345.479461 72.960808 C 345.479461 71.362106 344.893271 70.180843 343.72385 69.41998 C 342.572192 68.659116 340.75737 68.161742 338.279382 67.927858 L 338.279382 64.943615 L 359.497708 64.943615 L 359.497708 67.927858 C 357.274328 68.241677 355.480229 69.138727 354.112451 70.621967 C 352.747634 72.102246 351.311762 74.677932 349.810759 78.346065 Z M 329.294086 129.537089 " stroke="#343434" stroke-width="3.746469" stroke-opacity="1" stroke-miterlimit="4"/><g fill="#f5a604" fill-opacity="1"><g transform="translate(11.390628, 419.42908)"><g><path d="M 4.75 -3.953125 C 9.382812 -4.265625 12.703125 -4.710938 14.703125 -5.296875 C 16.710938 -5.878906 18.113281 -7.066406 18.90625 -8.859375 C 19.695312 -10.648438 20.09375 -13.601562 20.09375 -17.71875 L 20.09375 -93 C 20.09375 -97.113281 19.695312 -100.066406 18.90625 -101.859375 C 18.113281 -103.648438 16.738281 -104.835938 14.78125 -105.421875 C 12.832031 -106.003906 9.488281 -106.453125 4.75 -106.765625 L 4.75 -110.71875 L 51.09375 -110.71875 L 51.09375 -106.765625 C 46.34375 -106.453125 42.992188 -106.003906 41.046875 -105.421875 C 39.097656 -104.835938 37.726562 -103.648438 36.9375 -101.859375 C 36.144531 -100.066406 35.75 -97.113281 35.75 -93 L 35.75 -54.40625 L 80.671875 -95.21875 C 82.671875 -97.007812 83.671875 -98.800781 83.671875 -100.59375 C 83.671875 -104.175781 79.296875 -106.234375 70.546875 -106.765625 L 70.546875 -110.71875 L 113.25 -110.71875 L 113.25 -106.765625 C 108.820312 -106.347656 105.179688 -105.347656 102.328125 -103.765625 C 99.484375 -102.179688 95.476562 -99.015625 90.3125 -94.265625 L 60.109375 -67.0625 L 102.96875 -13.28125 C 105.5 -10.125 108.289062 -7.78125 111.34375 -6.25 C 114.40625 -4.71875 116.992188 -3.953125 119.109375 -3.953125 L 119.109375 0 L 72.28125 0 L 72.28125 -3.953125 C 80.082031 -4.378906 83.984375 -6.332031 83.984375 -9.8125 C 83.984375 -11.8125 82.878906 -14.234375 80.671875 -17.078125 L 48.71875 -56.46875 L 35.75 -44.921875 L 35.75 -17.71875 C 35.75 -13.601562 36.144531 -10.648438 36.9375 -8.859375 C 37.726562 -7.066406 39.125 -5.878906 41.125 -5.296875 C 43.125 -4.710938 46.445312 -4.265625 51.09375 -3.953125 L 51.09375 0 L 4.75 0 Z M 4.75 -3.953125 "/></g></g></g><g fill="#f5a604" fill-opacity="1"><g transform="translate(127.959409, 419.42908)"><g><path d="M 4.109375 -3.953125 C 8.429688 -4.378906 11.304688 -5.144531 12.734375 -6.25 C 14.160156 -7.351562 14.875 -9.328125 14.875 -12.171875 L 14.875 -92.375 C 14.875 -94.269531 14.503906 -95.613281 13.765625 -96.40625 C 13.023438 -97.195312 11.757812 -97.59375 9.96875 -97.59375 L 4.109375 -97.59375 L 4.109375 -100.75 L 23.890625 -113.09375 L 28.78125 -113.09375 L 28.78125 -12.171875 C 28.78125 -9.328125 29.492188 -7.351562 30.921875 -6.25 C 32.347656 -5.144531 35.171875 -4.378906 39.390625 -3.953125 L 39.390625 0 L 4.109375 0 Z M 4.109375 -3.953125 "/></g></g></g><g fill="#f5a604" fill-opacity="1"><g transform="translate(171.613401, 419.42908)"><g><path d="M 53.140625 -8.0625 C 43.441406 -1.3125 34.691406 2.0625 26.890625 2.0625 C 20.242188 2.0625 15.019531 0.613281 11.21875 -2.28125 C 7.425781 -5.1875 5.53125 -9.382812 5.53125 -14.875 C 5.53125 -20.25 7.507812 -24.703125 11.46875 -28.234375 C 15.425781 -31.765625 20.75 -34.554688 27.4375 -36.609375 C 34.132812 -38.671875 42.597656 -40.546875 52.828125 -42.234375 L 52.828125 -51.71875 C 52.828125 -57.625 52.007812 -61.765625 50.375 -64.140625 C 48.738281 -66.515625 45.757812 -67.703125 41.4375 -67.703125 C 32.375 -67.703125 26.890625 -63.851562 24.984375 -56.15625 C 23.617188 -51.09375 20.984375 -48.5625 17.078125 -48.5625 C 12.960938 -48.5625 10.90625 -50.929688 10.90625 -55.671875 C 10.90625 -58.734375 12.195312 -61.660156 14.78125 -64.453125 C 17.375 -67.242188 21.039062 -69.484375 25.78125 -71.171875 C 30.53125 -72.859375 36.015625 -73.703125 42.234375 -73.703125 C 58.679688 -73.703125 66.90625 -66.269531 66.90625 -51.40625 L 66.90625 -14.234375 C 66.90625 -11.285156 67.328125 -9.125 68.171875 -7.75 C 69.015625 -6.375 70.28125 -5.6875 71.96875 -5.6875 C 73.65625 -5.6875 75.609375 -6.269531 77.828125 -7.4375 L 77.828125 -1.734375 C 74.335938 0.578125 70.222656 1.734375 65.484375 1.734375 C 62.210938 1.734375 59.492188 0.921875 57.328125 -0.703125 C 55.171875 -2.335938 53.773438 -4.789062 53.140625 -8.0625 Z M 52.828125 -36.21875 C 42.179688 -34.632812 34.164062 -32.421875 28.78125 -29.578125 C 23.40625 -26.734375 20.71875 -22.460938 20.71875 -16.765625 C 20.71875 -13.179688 21.742188 -10.492188 23.796875 -8.703125 C 25.859375 -6.910156 28.578125 -6.015625 31.953125 -6.015625 C 37.960938 -6.015625 44.921875 -8.753906 52.828125 -14.234375 Z M 52.828125 -36.21875 "/></g></g></g><g fill="#f5a604" fill-opacity="1"><g transform="translate(253.543705, 419.42908)"><g><path d="M 54.25 -56 C 52.664062 -56 51.375 -56.3125 50.375 -56.9375 C 49.375 -57.570312 48.1875 -58.578125 46.8125 -59.953125 C 45.863281 -61.003906 44.96875 -61.816406 44.125 -62.390625 C 43.28125 -62.972656 42.332031 -63.265625 41.28125 -63.265625 C 39.28125 -63.265625 37.117188 -62.578125 34.796875 -61.203125 C 32.472656 -59.835938 30.46875 -57.835938 28.78125 -55.203125 L 28.78125 -12.171875 C 28.78125 -9.328125 29.492188 -7.351562 30.921875 -6.25 C 32.347656 -5.144531 35.171875 -4.378906 39.390625 -3.953125 L 39.390625 0 L 4.109375 0 L 4.109375 -3.953125 C 8.429688 -4.378906 11.304688 -5.144531 12.734375 -6.25 C 14.160156 -7.351562 14.875 -9.328125 14.875 -12.171875 L 14.875 -52.984375 C 14.875 -54.878906 14.503906 -56.222656 13.765625 -57.015625 C 13.023438 -57.804688 11.757812 -58.203125 9.96875 -58.203125 L 4.109375 -58.203125 L 4.109375 -61.375 L 23.890625 -73.703125 L 28.78125 -73.703125 L 28.78125 -63.265625 C 31.53125 -66.535156 34.800781 -69.09375 38.59375 -70.9375 C 42.382812 -72.78125 46.128906 -73.703125 49.828125 -73.703125 C 53.941406 -73.703125 57 -72.78125 59 -70.9375 C 61 -69.09375 62 -66.800781 62 -64.0625 C 62 -61.53125 61.285156 -59.550781 59.859375 -58.125 C 58.441406 -56.707031 56.570312 -56 54.25 -56 Z M 54.25 -56 "/></g></g></g><g fill="#f5a604" fill-opacity="1"><g transform="translate(316.968509, 419.42908)"><g><path d="M 22.140625 -108.1875 C 24.878906 -108.1875 27.117188 -107.316406 28.859375 -105.578125 C 30.597656 -103.835938 31.46875 -101.703125 31.46875 -99.171875 C 31.46875 -96.742188 30.597656 -94.660156 28.859375 -92.921875 C 27.117188 -91.179688 24.878906 -90.3125 22.140625 -90.3125 C 19.398438 -90.3125 17.160156 -91.179688 15.421875 -92.921875 C 13.679688 -94.660156 12.8125 -96.742188 12.8125 -99.171875 C 12.8125 -101.703125 13.679688 -103.835938 15.421875 -105.578125 C 17.160156 -107.316406 19.398438 -108.1875 22.140625 -108.1875 Z M 4.109375 -3.953125 C 8.429688 -4.378906 11.304688 -5.144531 12.734375 -6.25 C 14.160156 -7.351562 14.875 -9.328125 14.875 -12.171875 L 14.875 -52.984375 C 14.875 -54.878906 14.503906 -56.222656 13.765625 -57.015625 C 13.023438 -57.804688 11.757812 -58.203125 9.96875 -58.203125 L 4.109375 -58.203125 L 4.109375 -61.375 L 23.890625 -73.703125 L 28.78125 -73.703125 L 28.78125 -12.171875 C 28.78125 -9.328125 29.492188 -7.351562 30.921875 -6.25 C 32.347656 -5.144531 35.171875 -4.378906 39.390625 -3.953125 L 39.390625 0 L 4.109375 0 Z M 4.109375 -3.953125 "/></g></g></g><g fill="#f5a604" fill-opacity="1"><g transform="translate(360.622481, 419.42908)"><g><path d="M 46.34375 -1.265625 C 44.445312 -0.421875 42.207031 0.285156 39.625 0.859375 C 37.039062 1.441406 34.484375 1.734375 31.953125 1.734375 C 26.148438 1.734375 21.613281 0.335938 18.34375 -2.453125 C 15.070312 -5.242188 13.4375 -10.015625 13.4375 -16.765625 L 13.4375 -64.84375 L 2.84375 -64.84375 L 2.84375 -68.171875 C 8.75 -70.273438 13.175781 -73.4375 16.125 -77.65625 C 19.082031 -81.875 21.191406 -87.570312 22.453125 -94.75 L 27.359375 -94.75 L 27.359375 -71.328125 L 46.34375 -71.328125 L 46.34375 -64.84375 L 27.359375 -64.84375 L 27.359375 -16.609375 C 27.359375 -12.804688 28.070312 -10.007812 29.5 -8.21875 C 30.925781 -6.425781 33.269531 -5.53125 36.53125 -5.53125 C 39.800781 -5.53125 43.070312 -6.164062 46.34375 -7.4375 Z M 46.34375 -1.265625 "/></g></g></g><g fill="#f5a604" fill-opacity="1"><g transform="translate(411.077629, 419.42908)"><g><path d="M 34.796875 13.921875 C 30.160156 25.617188 22.78125 31.46875 12.65625 31.46875 C 8.332031 31.46875 4.691406 30.546875 1.734375 28.703125 C -1.210938 26.859375 -2.6875 24.460938 -2.6875 21.515625 C -2.6875 19.503906 -1.945312 17.757812 -0.46875 16.28125 C 1 14.8125 2.84375 14.078125 5.0625 14.078125 C 6.644531 14.078125 7.910156 14.390625 8.859375 15.015625 C 9.804688 15.648438 11.019531 16.707031 12.5 18.1875 C 13.445312 19.34375 14.367188 20.238281 15.265625 20.875 C 16.160156 21.507812 17.1875 21.828125 18.34375 21.828125 C 20.351562 21.828125 22.226562 20.847656 23.96875 18.890625 C 25.707031 16.941406 27.207031 14.335938 28.46875 11.078125 L 32.109375 1.734375 L 11.078125 -53.625 C 9.703125 -57.3125 8.566406 -60 7.671875 -61.6875 C 6.773438 -63.375 5.640625 -64.691406 4.265625 -65.640625 C 2.898438 -66.585938 1.003906 -67.164062 -1.421875 -67.375 L -1.421875 -71.328125 L 33.375 -71.328125 L 33.375 -67.375 C 29.894531 -67.164062 27.441406 -66.640625 26.015625 -65.796875 C 24.597656 -64.953125 23.890625 -63.6875 23.890625 -62 C 23.890625 -60.632812 24.625 -57.84375 26.09375 -53.625 L 39.859375 -17.234375 L 54.40625 -53.625 C 55.570312 -56.570312 56.15625 -58.941406 56.15625 -60.734375 C 56.15625 -62.847656 55.390625 -64.40625 53.859375 -65.40625 C 52.328125 -66.40625 49.925781 -67.0625 46.65625 -67.375 L 46.65625 -71.328125 L 74.65625 -71.328125 L 74.65625 -67.375 C 71.707031 -66.957031 69.332031 -65.769531 67.53125 -63.8125 C 65.738281 -61.863281 63.84375 -58.46875 61.84375 -53.625 Z M 34.796875 13.921875 "/></g></g></g><path stroke-linecap="butt" transform="matrix(1.038419, 0, 0, 1.038419, 11.390628, 428.089678)" fill="none" stroke-linejoin="miter" d="M 2.738535 81.998301 L 16.261946 81.998301 L 16.261946 80.892353 C 13.609928 80.117437 12.835012 78.153815 12.835012 71.13067 L 12.835012 54.093805 L 12.91777 54.093805 C 13.188615 49.974713 16.261946 45.189795 18.748448 43.391689 C 23.807972 44.832431 27.13334 45.772863 29.454326 45.772863 C 32.523895 45.772863 34.42733 42.786051 34.42733 40.905187 C 34.42733 39.441875 32.275621 38.584201 28.844926 38.584201 C 24.748404 38.584201 21.739022 39.712719 19.083242 41.676341 C 16.532791 43.557205 14.215566 46.465021 12.835012 49.809197 L 12.835012 39.107081 L 12.082667 38.501443 L 2.738535 42.616773 L 2.738535 43.557205 C 5.059521 44.584157 6.165469 45.441831 6.165469 51.438025 L 6.165469 71.13067 C 6.165469 78.153815 5.394315 80.117437 2.738535 80.892353 Z M 59.326206 82.855975 C 68.482251 82.855975 75.170603 76.773261 79.537969 70.773306 L 78.766815 70.02096 C 74.835809 74.474846 70.111079 77.465419 63.528056 77.465419 C 52.385818 77.465419 45.110637 69.415322 45.110637 57.690016 C 45.110637 56.309462 45.193395 55.034237 45.385243 53.740202 L 78.849573 53.740202 C 78.597537 45.607347 72.349307 38.584201 61.560672 38.584201 C 49.564522 38.584201 39.027923 47.928333 39.027923 61.869296 C 39.027923 76.002107 49.918125 82.855975 59.326206 82.855975 Z M 45.633517 52.630492 C 46.9915 45.441831 51.445386 40.047513 58.739376 40.130271 C 66.514868 40.130271 71.138031 46.905143 71.991943 52.630492 Z M 101.284517 82.773217 C 111.546511 82.690459 116.940828 76.607745 116.940828 69.415322 C 116.940828 60.846106 109.060009 58.882484 102.559743 56.749584 C 95.807442 54.511356 90.311557 52.295699 90.311557 46.905143 C 90.311557 42.534015 94.092094 39.712719 99.903963 39.712719 C 105.986677 39.712719 111.463753 43.643725 114.202291 49.809197 L 115.059965 49.639919 L 114.725171 40.905187 C 112.069391 39.795477 107.013629 38.584201 101.453795 38.584201 C 91.522834 38.584201 85.857672 43.809241 85.857672 50.584113 C 85.857672 58.378413 91.68835 60.59407 99.821205 63.167092 C 106.404229 65.299992 112.404185 67.263614 112.404185 73.429085 C 112.404185 78.236573 108.476941 81.392663 103.165381 81.392663 C 95.36732 81.309905 89.284606 76.438468 85.692156 68.309374 L 84.91724 68.47489 L 85.692156 78.823403 C 88.513452 80.723076 94.426888 82.773217 101.284517 82.773217 Z M 136.204636 82.855975 C 141.260398 82.855975 145.631526 79.177005 149.310496 74.975155 L 148.53558 74.204001 C 145.714284 77.548177 142.704902 78.654125 140.319967 78.654125 C 136.640997 78.654125 134.237253 76.438468 134.237253 70.60779 L 134.237253 40.382307 L 146.823994 40.382307 L 147.260354 39.189839 L 134.237253 39.189839 L 134.237253 28.65324 L 133.048547 28.65324 L 122.071825 39.189839 L 122.071825 40.382307 L 127.548901 40.382307 L 127.548901 70.60779 C 127.548901 79.511799 130.810319 82.855975 136.204636 82.855975 Z M 185.344086 81.998301 L 192.807354 81.998301 L 192.807354 80.892353 C 190.151574 80.117437 189.376658 78.153815 189.376658 71.13067 L 189.376658 54.011047 C 189.376658 44.332121 184.56917 38.584201 174.224419 38.584201 C 166.761151 38.584201 160.512921 42.263171 155.641484 48.345885 L 156.412638 49.034281 C 160.701008 43.809241 165.651441 41.405497 170.793723 41.405497 C 178.068905 41.405497 182.353513 45.272553 182.774826 53.570924 L 171.651397 56.561498 C 161.453353 59.405364 152.462824 62.72697 152.462824 71.630979 C 152.462824 79.011489 158.127986 82.855975 164.462735 82.855975 C 172.926623 82.855975 180.119046 74.557604 182.774826 64.024766 L 182.774826 79.429041 C 182.774826 81.057869 183.628738 81.998301 185.344086 81.998301 Z M 158.902902 69.249806 C 158.797573 62.22666 165.651441 59.405364 171.986191 57.607258 L 182.774826 54.680634 L 182.774826 57.249894 C 182.688306 66.240424 176.793679 77.800213 167.618825 77.800213 C 162.747388 77.800213 158.902902 74.809639 158.902902 69.249806 Z M 213.511904 82.855975 C 219.929411 82.855975 225.846609 78.740645 230.213975 74.204001 L 230.213975 78.571367 C 230.213975 81.057869 231.154407 81.998301 233.039033 81.998301 L 240.310453 81.998301 L 240.310453 80.892353 C 237.658434 80.117437 236.883519 78.153815 236.883519 71.13067 L 236.883519 39.107081 L 236.108603 38.501443 L 226.787041 42.616773 L 226.787041 43.557205 C 229.085457 44.584157 230.213975 45.441831 230.213975 51.438025 L 230.213975 72.571411 C 226.346919 76.690503 221.727517 79.869163 216.671755 79.869163 C 209.832934 79.869163 207.098158 75.498036 207.098158 65.736352 L 207.098158 39.107081 L 206.323242 38.501443 L 196.97911 42.616773 L 196.97911 43.557205 C 199.300096 44.584157 200.406044 45.441831 200.406044 51.438025 L 200.406044 67.263614 C 200.406044 77.130625 204.525136 82.855975 213.511904 82.855975 Z M 246.039564 81.998301 L 259.562975 81.998301 L 259.562975 80.892353 C 256.910957 80.117437 256.136041 78.153815 256.136041 71.13067 L 256.136041 54.093805 L 256.218799 54.093805 C 256.493405 49.974713 259.562975 45.189795 262.053239 43.391689 C 267.112763 44.832431 270.434369 45.772863 272.755355 45.772863 C 275.828686 45.772863 277.728359 42.786051 277.728359 40.905187 C 277.728359 39.441875 275.57665 38.584201 272.149716 38.584201 C 268.053195 38.584201 265.040051 39.712719 262.388033 41.676341 C 259.837581 43.557205 257.516595 46.465021 256.136041 49.809197 L 256.136041 39.107081 L 255.383696 38.501443 L 246.039564 42.616773 L 246.039564 43.557205 C 248.36055 44.584157 249.47026 45.441831 249.47026 51.438025 L 249.47026 71.13067 C 249.47026 78.153815 248.695344 80.117437 246.039564 80.892353 Z M 315.127456 81.998301 L 322.590724 81.998301 L 322.590724 80.892353 C 319.934944 80.117437 319.16379 78.153815 319.16379 71.13067 L 319.16379 54.011047 C 319.16379 44.332121 314.356302 38.584201 304.007789 38.584201 C 296.544521 38.584201 290.296291 42.263171 285.424854 48.345885 L 286.19977 49.034281 C 290.484378 43.809241 295.438573 41.405497 300.580855 41.405497 C 307.852275 41.405497 312.140644 45.272553 312.558196 53.570924 L 301.434767 56.561498 C 291.236723 59.405364 282.246194 62.72697 282.246194 71.630979 C 282.246194 79.011489 287.911356 82.855975 294.246105 82.855975 C 302.709993 82.855975 309.902416 74.557604 312.558196 64.024766 L 312.558196 79.429041 C 312.558196 81.057869 313.41587 81.998301 315.127456 81.998301 Z M 288.686272 69.249806 C 288.580943 62.22666 295.438573 59.405364 301.769561 57.607258 L 312.558196 54.680634 L 312.558196 57.249894 C 312.471676 66.240424 306.577049 77.800213 297.402195 77.800213 C 292.530758 77.800213 288.686272 74.809639 288.686272 69.249806 Z M 327.368118 81.998301 L 340.895292 81.998301 L 340.895292 80.892353 C 338.32227 80.117437 337.464596 78.153815 337.464596 71.13067 L 337.464596 47.845575 C 341.835723 44.249363 346.455125 41.405497 351.179855 41.405497 C 358.703311 41.405497 362.465039 46.295743 362.465039 55.203514 L 362.465039 71.13067 C 362.465039 78.153815 361.712693 80.117437 359.056913 80.892353 L 359.056913 81.998301 L 372.584086 81.998301 L 372.584086 80.892353 C 369.928306 80.117437 369.153391 78.153815 369.153391 71.13067 L 369.153391 53.488166 C 369.153391 43.474447 364.011109 38.584201 355.629979 38.584201 C 349.024385 38.584201 342.441362 42.451257 337.464596 46.465021 L 337.464596 39.107081 L 336.795008 38.501443 L 327.368118 42.616773 L 327.368118 43.557205 C 329.771862 44.584157 330.798814 45.441831 330.798814 51.438025 L 330.798814 71.13067 C 330.798814 78.153815 330.023898 80.117437 327.368118 80.892353 Z M 390.805896 82.855975 C 395.865419 82.855975 400.232785 79.177005 403.911755 74.975155 L 403.140601 74.204001 C 400.315543 77.548177 397.306161 78.654125 394.924988 78.654125 C 391.246018 78.654125 388.842274 76.438468 388.842274 70.60779 L 388.842274 40.382307 L 401.425253 40.382307 L 401.865375 39.189839 L 388.842274 39.189839 L 388.842274 28.65324 L 387.649806 28.65324 L 376.676846 39.189839 L 376.676846 40.382307 L 382.153922 40.382307 L 382.153922 70.60779 C 382.153922 79.511799 385.411578 82.855975 390.805896 82.855975 Z M 457.926404 81.998301 L 465.385911 81.998301 L 465.385911 80.892353 C 462.733892 80.117437 461.958977 78.153815 461.958977 71.13067 L 461.958977 54.011047 C 461.958977 44.332121 457.151488 38.584201 446.802975 38.584201 C 439.339707 38.584201 433.091478 42.263171 428.22004 48.345885 L 428.994956 49.034281 C 433.279564 43.809241 438.233759 41.405497 443.376041 41.405497 C 450.651223 41.405497 454.935831 45.272553 455.353383 53.570924 L 444.233715 56.561498 C 434.03191 59.405364 425.045142 62.72697 425.045142 71.630979 C 425.045142 79.011489 430.710304 82.855975 437.041292 82.855975 C 445.508941 82.855975 452.697603 74.557604 455.353383 64.024766 L 455.353383 79.429041 C 455.353383 81.057869 456.211056 81.998301 457.926404 81.998301 Z M 431.481458 69.249806 C 431.37613 62.22666 438.233759 59.405364 444.568509 57.607258 L 455.353383 54.680634 L 455.353383 57.249894 C 455.270625 66.240424 449.375997 77.800213 440.197381 77.800213 C 435.329706 77.800213 431.481458 74.809639 431.481458 69.249806 Z M 489.438398 82.942495 C 495.502303 83.025253 500.810101 78.928731 505.011951 74.557604 L 505.011951 79.429041 C 505.011951 81.057869 505.952383 81.998301 507.581211 81.998301 L 515.108428 81.998301 L 515.108428 80.892353 C 512.452648 80.117437 511.700303 78.153815 511.700303 71.13067 L 511.700303 13.41448 L 511.011907 12.808842 L 501.585017 16.927934 L 501.585017 17.868366 C 503.902241 18.891556 505.011951 19.74923 505.011951 25.749186 L 505.011951 42.011135 C 502.021377 40.130271 498.071563 38.666959 493.369403 38.666959 C 478.653524 38.772287 470.50186 49.726439 470.50186 61.621022 C 470.50186 73.69993 478.81904 82.855975 489.438398 82.942495 Z M 476.938177 56.47874 C 476.938177 47.405453 481.640336 40.299549 490.713624 40.299549 C 497.906047 40.299549 504.237035 46.465021 505.011951 52.024854 L 505.011951 73.011534 C 501.667775 76.438468 497.736769 78.740645 493.286645 78.740645 C 481.640336 78.740645 476.938177 66.511268 476.938177 56.47874 Z M 522.639407 49.203558 L 536.354667 81.998301 L 539.950878 81.998301 L 552.533858 49.369074 C 555.02036 42.786051 556.378344 41.070703 558.782088 40.299549 L 558.782088 39.189839 L 549.960836 39.189839 L 549.960836 40.299549 C 552.95141 40.905187 553.305012 43.726483 551.153304 49.369074 L 541.056826 75.750071 L 529.831831 49.203558 C 527.093293 42.786051 526.404897 41.070703 528.974157 40.299549 L 528.974157 39.189839 L 516.662022 39.189839 L 516.662022 40.299549 C 518.460128 41.070703 519.987389 42.786051 522.639407 49.203558 Z M 561.084265 81.998301 L 574.607676 81.998301 L 574.607676 80.892353 C 572.034655 80.117437 571.180742 78.153815 571.180742 71.13067 L 571.180742 39.107081 L 570.511155 38.501443 L 561.084265 42.616773 L 561.084265 43.557205 C 563.488009 44.584157 564.511199 45.441831 564.511199 51.438025 L 564.511199 71.13067 C 564.511199 78.153815 563.736283 80.117437 561.084265 80.892353 Z M 562.630335 28.570482 C 562.630335 31.143503 564.676715 33.272641 567.332495 33.272641 C 569.988275 33.272641 572.034655 31.143503 572.034655 28.570482 C 572.034655 25.831944 570.071033 23.785564 567.332495 23.785564 C 564.676715 23.785564 562.630335 25.831944 562.630335 28.570482 Z M 596.963625 82.773217 C 607.225618 82.690459 612.619936 76.607745 612.619936 69.415322 C 612.619936 60.846106 604.739116 58.882484 598.23885 56.749584 C 591.486549 54.511356 585.990665 52.295699 585.990665 46.905143 C 585.990665 42.534015 589.771201 39.712719 595.583071 39.712719 C 601.665784 39.712719 607.14286 43.643725 609.881398 49.809197 L 610.739072 49.639919 L 610.404278 40.905187 C 607.748498 39.795477 602.688974 38.584201 597.129141 38.584201 C 587.201941 38.584201 581.536779 43.809241 581.536779 50.584113 C 581.536779 58.378413 587.367457 60.59407 595.500313 63.167092 C 602.083336 65.299992 608.083292 67.263614 608.083292 73.429085 C 608.083292 78.236573 604.152286 81.392663 598.844489 81.392663 C 591.046427 81.309905 584.963713 76.438468 581.367501 68.309374 L 580.596347 68.47489 L 581.367501 78.823403 C 584.192559 80.723076 590.105995 82.773217 596.963625 82.773217 Z M 641.224114 82.855975 C 651.320591 82.855975 663.572538 74.975155 663.572538 60.345796 C 663.572538 45.107037 651.843471 38.584201 641.224114 38.584201 C 629.48 38.584201 618.774122 47.845575 618.774122 61.199708 C 618.774122 76.084865 630.333912 82.855975 641.224114 82.855975 Z M 625.379716 56.309462 C 625.379716 47.759055 629.310722 40.570393 638.049215 40.213029 C 649.274211 39.607391 657.049702 54.34584 657.049702 65.38275 C 657.049702 73.69993 652.953181 81.057869 643.774565 81.057869 C 632.406624 81.057869 625.379716 67.180856 625.379716 56.309462 Z M 669.978761 81.998301 L 683.502172 81.998301 L 683.502172 80.892353 C 680.846392 80.117437 680.075238 78.153815 680.075238 71.13067 L 680.075238 54.093805 L 680.157996 54.093805 C 680.428841 49.974713 683.502172 45.189795 685.988674 43.391689 C 691.048198 44.832431 694.373565 45.772863 696.69079 45.772863 C 699.764121 45.772863 701.667556 42.786051 701.667556 40.905187 C 701.667556 39.441875 699.515847 38.584201 696.085152 38.584201 C 691.98863 38.584201 688.979248 39.712719 686.323468 41.676341 C 683.773016 43.557205 681.455792 46.465021 680.075238 49.809197 L 680.075238 39.107081 L 679.322893 38.501443 L 669.978761 42.616773 L 669.978761 43.557205 C 672.299747 44.584157 673.405695 45.441831 673.405695 51.438025 L 673.405695 71.13067 C 673.405695 78.153815 672.634541 80.117437 669.978761 80.892353 Z M 722.552668 82.773217 C 732.814662 82.690459 738.208979 76.607745 738.208979 69.415322 C 738.208979 60.846106 730.328159 58.882484 723.827894 56.749584 C 717.075592 54.511356 711.579708 52.295699 711.579708 46.905143 C 711.579708 42.534015 715.360245 39.712719 721.172114 39.712719 C 727.254828 39.712719 732.731903 43.643725 735.470441 49.809197 L 736.328115 49.639919 L 735.993321 40.905187 C 733.337542 39.795477 728.278018 38.584201 722.718184 38.584201 C 712.790985 38.584201 707.125823 43.809241 707.125823 50.584113 C 707.125823 58.378413 712.956501 60.59407 721.089356 63.167092 C 727.67238 65.299992 733.672335 67.263614 733.672335 73.429085 C 733.672335 78.236573 729.74133 81.392663 724.433532 81.392663 C 716.63547 81.309905 710.552757 76.438468 706.956545 68.309374 L 706.185391 68.47489 L 706.956545 78.823403 C 709.781602 80.723076 715.695038 82.773217 722.552668 82.773217 Z M 722.552668 82.773217 " stroke="#343434" stroke-width="2.675928" stroke-opacity="1" stroke-miterlimit="4"/><g fill="#fefefe" fill-opacity="1"><g transform="translate(11.390628, 513.240045)"><g><path d="M 2.84375 0 L 16.890625 0 L 16.890625 -1.15625 C 14.140625 -1.953125 13.34375 -4 13.34375 -11.296875 L 13.34375 -28.984375 L 13.421875 -28.984375 C 13.6875 -33.25 16.890625 -38.234375 19.46875 -40.09375 C 24.71875 -38.578125 28.1875 -37.609375 30.578125 -37.609375 C 33.78125 -37.609375 35.734375 -40.71875 35.734375 -42.671875 C 35.734375 -44.1875 33.515625 -45.078125 29.96875 -45.078125 C 25.6875 -45.078125 22.578125 -43.921875 19.828125 -41.875 C 17.15625 -39.921875 14.765625 -36.890625 13.34375 -33.421875 L 13.34375 -44.546875 L 12.53125 -45.171875 L 2.84375 -40.890625 L 2.84375 -39.921875 C 5.25 -38.859375 6.40625 -37.96875 6.40625 -31.734375 L 6.40625 -11.296875 C 6.40625 -4 5.59375 -1.953125 2.84375 -1.15625 Z M 2.84375 0 "/></g></g></g><g fill="#fefefe" fill-opacity="1"><g transform="translate(48.727987, 513.240045)"><g><path d="M 24.265625 0.890625 C 33.78125 0.890625 40.71875 -5.421875 45.25 -11.640625 L 44.453125 -12.453125 C 40.359375 -7.828125 35.46875 -4.71875 28.625 -4.71875 C 17.0625 -4.71875 9.515625 -13.0625 9.515625 -25.25 C 9.515625 -26.671875 9.609375 -28 9.78125 -29.34375 L 44.546875 -29.34375 C 44.28125 -37.78125 37.78125 -45.078125 26.578125 -45.078125 C 14.140625 -45.078125 3.203125 -35.390625 3.203125 -20.890625 C 3.203125 -6.21875 14.484375 0.890625 24.265625 0.890625 Z M 10.046875 -30.5 C 11.46875 -37.96875 16.09375 -43.5625 23.65625 -43.46875 C 31.734375 -43.46875 36.546875 -36.453125 37.421875 -30.5 Z M 10.046875 -30.5 "/></g></g></g><g fill="#fefefe" fill-opacity="1"><g transform="translate(96.466476, 513.240045)"><g><path d="M 20.09375 0.796875 C 30.765625 0.71875 36.359375 -5.59375 36.359375 -13.0625 C 36.359375 -21.953125 28.1875 -24 21.421875 -26.234375 C 14.40625 -28.53125 8.71875 -30.84375 8.71875 -36.453125 C 8.71875 -40.984375 12.625 -43.921875 18.671875 -43.921875 C 24.984375 -43.921875 30.671875 -39.828125 33.515625 -33.421875 L 34.40625 -33.609375 L 34.046875 -42.671875 C 31.296875 -43.828125 26.046875 -45.078125 20.265625 -45.078125 C 9.953125 -45.078125 4.09375 -39.65625 4.09375 -32.625 C 4.09375 -24.53125 10.140625 -22.234375 18.578125 -19.5625 C 25.421875 -17.34375 31.65625 -15.296875 31.65625 -8.890625 C 31.65625 -3.90625 27.5625 -0.625 22.046875 -0.625 C 13.953125 -0.71875 7.640625 -5.78125 3.90625 -14.21875 L 3.109375 -14.046875 L 3.90625 -3.296875 C 6.84375 -1.328125 12.984375 0.796875 20.09375 0.796875 Z M 20.09375 0.796875 "/></g></g></g><g fill="#fefefe" fill-opacity="1"><g transform="translate(136.026305, 513.240045)"><g><path d="M 16.796875 0.890625 C 22.046875 0.890625 26.578125 -2.9375 30.40625 -7.296875 L 29.609375 -8.09375 C 26.671875 -4.625 23.5625 -3.46875 21.078125 -3.46875 C 17.25 -3.46875 14.765625 -5.78125 14.765625 -11.828125 L 14.765625 -43.203125 L 27.828125 -43.203125 L 28.265625 -44.453125 L 14.765625 -44.453125 L 14.765625 -55.390625 L 13.515625 -55.390625 L 2.140625 -44.453125 L 2.140625 -43.203125 L 7.828125 -43.203125 L 7.828125 -11.828125 C 7.828125 -2.578125 11.203125 0.890625 16.796875 0.890625 Z M 16.796875 0.890625 "/></g></g></g><g fill="#fefefe" fill-opacity="1"><g transform="translate(166.60738, 513.240045)"><g><path d="M 37.25 0 L 44.984375 0 L 44.984375 -1.15625 C 42.234375 -1.953125 41.4375 -4 41.4375 -11.296875 L 41.4375 -29.078125 C 41.4375 -39.125 36.453125 -45.078125 25.6875 -45.078125 C 17.953125 -45.078125 11.46875 -41.25 6.40625 -34.9375 L 7.203125 -34.234375 C 11.640625 -39.65625 16.796875 -42.140625 22.140625 -42.140625 C 29.6875 -42.140625 34.140625 -38.140625 34.578125 -29.515625 L 23.03125 -26.40625 C 12.453125 -23.46875 3.109375 -20 3.109375 -10.75 C 3.109375 -3.109375 8.984375 0.890625 15.5625 0.890625 C 24.359375 0.890625 31.828125 -7.734375 34.578125 -18.671875 L 34.578125 -2.671875 C 34.578125 -0.984375 35.46875 0 37.25 0 Z M 9.78125 -13.25 C 9.6875 -20.53125 16.796875 -23.46875 23.375 -25.34375 L 34.578125 -28.359375 L 34.578125 -25.6875 C 34.5 -16.359375 28.359375 -4.359375 18.84375 -4.359375 C 13.78125 -4.359375 9.78125 -7.46875 9.78125 -13.25 Z M 9.78125 -13.25 "/></g></g></g><g fill="#fefefe" fill-opacity="1"><g transform="translate(213.723571, 513.240045)"><g><path d="M 19.375 0.890625 C 26.046875 0.890625 32.1875 -3.375 36.71875 -8.09375 L 36.71875 -3.5625 C 36.71875 -0.984375 37.703125 0 39.65625 0 L 47.203125 0 L 47.203125 -1.15625 C 44.453125 -1.953125 43.65625 -4 43.65625 -11.296875 L 43.65625 -44.546875 L 42.859375 -45.171875 L 33.15625 -40.890625 L 33.15625 -39.921875 C 35.5625 -38.859375 36.71875 -37.96875 36.71875 -31.734375 L 36.71875 -9.78125 C 32.71875 -5.515625 27.921875 -2.21875 22.671875 -2.21875 C 15.5625 -2.21875 12.71875 -6.75 12.71875 -16.890625 L 12.71875 -44.546875 L 11.90625 -45.171875 L 2.21875 -40.890625 L 2.21875 -39.921875 C 4.625 -38.859375 5.78125 -37.96875 5.78125 -31.734375 L 5.78125 -15.296875 C 5.78125 -5.0625 10.046875 0.890625 19.375 0.890625 Z M 19.375 0.890625 "/></g></g></g><g fill="#fefefe" fill-opacity="1"><g transform="translate(264.040108, 513.240045)"><g><path d="M 2.84375 0 L 16.890625 0 L 16.890625 -1.15625 C 14.140625 -1.953125 13.34375 -4 13.34375 -11.296875 L 13.34375 -28.984375 L 13.421875 -28.984375 C 13.6875 -33.25 16.890625 -38.234375 19.46875 -40.09375 C 24.71875 -38.578125 28.1875 -37.609375 30.578125 -37.609375 C 33.78125 -37.609375 35.734375 -40.71875 35.734375 -42.671875 C 35.734375 -44.1875 33.515625 -45.078125 29.96875 -45.078125 C 25.6875 -45.078125 22.578125 -43.921875 19.828125 -41.875 C 17.15625 -39.921875 14.765625 -36.890625 13.34375 -33.421875 L 13.34375 -44.546875 L 12.53125 -45.171875 L 2.84375 -40.890625 L 2.84375 -39.921875 C 5.25 -38.859375 6.40625 -37.96875 6.40625 -31.734375 L 6.40625 -11.296875 C 6.40625 -4 5.59375 -1.953125 2.84375 -1.15625 Z M 2.84375 0 "/></g></g></g><g fill="#fefefe" fill-opacity="1"><g transform="translate(301.377467, 513.240045)"><g><path d="M 37.25 0 L 44.984375 0 L 44.984375 -1.15625 C 42.234375 -1.953125 41.4375 -4 41.4375 -11.296875 L 41.4375 -29.078125 C 41.4375 -39.125 36.453125 -45.078125 25.6875 -45.078125 C 17.953125 -45.078125 11.46875 -41.25 6.40625 -34.9375 L 7.203125 -34.234375 C 11.640625 -39.65625 16.796875 -42.140625 22.140625 -42.140625 C 29.6875 -42.140625 34.140625 -38.140625 34.578125 -29.515625 L 23.03125 -26.40625 C 12.453125 -23.46875 3.109375 -20 3.109375 -10.75 C 3.109375 -3.109375 8.984375 0.890625 15.5625 0.890625 C 24.359375 0.890625 31.828125 -7.734375 34.578125 -18.671875 L 34.578125 -2.671875 C 34.578125 -0.984375 35.46875 0 37.25 0 Z M 9.78125 -13.25 C 9.6875 -20.53125 16.796875 -23.46875 23.375 -25.34375 L 34.578125 -28.359375 L 34.578125 -25.6875 C 34.5 -16.359375 28.359375 -4.359375 18.84375 -4.359375 C 13.78125 -4.359375 9.78125 -7.46875 9.78125 -13.25 Z M 9.78125 -13.25 "/></g></g></g><g fill="#fefefe" fill-opacity="1"><g transform="translate(348.493643, 513.240045)"><g><path d="M 2.84375 0 L 16.890625 0 L 16.890625 -1.15625 C 14.21875 -1.953125 13.34375 -4 13.34375 -11.296875 L 13.34375 -35.46875 C 17.875 -39.203125 22.671875 -42.140625 27.5625 -42.140625 C 35.390625 -42.140625 39.296875 -37.078125 39.296875 -27.828125 L 39.296875 -11.296875 C 39.296875 -4 38.5 -1.953125 35.734375 -1.15625 L 35.734375 0 L 49.78125 0 L 49.78125 -1.15625 C 47.03125 -1.953125 46.234375 -4 46.234375 -11.296875 L 46.234375 -29.609375 C 46.234375 -40.015625 40.890625 -45.078125 32.1875 -45.078125 C 25.34375 -45.078125 18.5 -41.078125 13.34375 -36.890625 L 13.34375 -44.546875 L 12.625 -45.171875 L 2.84375 -40.890625 L 2.84375 -39.921875 C 5.328125 -38.859375 6.40625 -37.96875 6.40625 -31.734375 L 6.40625 -11.296875 C 6.40625 -4 5.59375 -1.953125 2.84375 -1.15625 Z M 2.84375 0 "/></g></g></g><g fill="#fefefe" fill-opacity="1"><g transform="translate(400.410352, 513.240045)"><g><path d="M 16.796875 0.890625 C 22.046875 0.890625 26.578125 -2.9375 30.40625 -7.296875 L 29.609375 -8.09375 C 26.671875 -4.625 23.5625 -3.46875 21.078125 -3.46875 C 17.25 -3.46875 14.765625 -5.78125 14.765625 -11.828125 L 14.765625 -43.203125 L 27.828125 -43.203125 L 28.265625 -44.453125 L 14.765625 -44.453125 L 14.765625 -55.390625 L 13.515625 -55.390625 L 2.140625 -44.453125 L 2.140625 -43.203125 L 7.828125 -43.203125 L 7.828125 -11.828125 C 7.828125 -2.578125 11.203125 0.890625 16.796875 0.890625 Z M 16.796875 0.890625 "/></g></g></g><g fill="#fefefe" fill-opacity="1"><g transform="translate(430.991427, 513.240045)"><g/></g></g><g fill="#fefefe" fill-opacity="1"><g transform="translate(449.660091, 513.240045)"><g><path d="M 37.25 0 L 44.984375 0 L 44.984375 -1.15625 C 42.234375 -1.953125 41.4375 -4 41.4375 -11.296875 L 41.4375 -29.078125 C 41.4375 -39.125 36.453125 -45.078125 25.6875 -45.078125 C 17.953125 -45.078125 11.46875 -41.25 6.40625 -34.9375 L 7.203125 -34.234375 C 11.640625 -39.65625 16.796875 -42.140625 22.140625 -42.140625 C 29.6875 -42.140625 34.140625 -38.140625 34.578125 -29.515625 L 23.03125 -26.40625 C 12.453125 -23.46875 3.109375 -20 3.109375 -10.75 C 3.109375 -3.109375 8.984375 0.890625 15.5625 0.890625 C 24.359375 0.890625 31.828125 -7.734375 34.578125 -18.671875 L 34.578125 -2.671875 C 34.578125 -0.984375 35.46875 0 37.25 0 Z M 9.78125 -13.25 C 9.6875 -20.53125 16.796875 -23.46875 23.375 -25.34375 L 34.578125 -28.359375 L 34.578125 -25.6875 C 34.5 -16.359375 28.359375 -4.359375 18.84375 -4.359375 C 13.78125 -4.359375 9.78125 -7.46875 9.78125 -13.25 Z M 9.78125 -13.25 "/></g></g></g><g fill="#fefefe" fill-opacity="1"><g transform="translate(496.776266, 513.240045)"><g><path d="M 22.84375 0.984375 C 29.15625 1.0625 34.671875 -3.203125 39.03125 -7.734375 L 39.03125 -2.671875 C 39.03125 -0.984375 40.015625 0 41.703125 0 L 49.515625 0 L 49.515625 -1.15625 C 46.765625 -1.953125 45.96875 -4 45.96875 -11.296875 L 45.96875 -71.21875 L 45.25 -71.84375 L 35.46875 -67.5625 L 35.46875 -66.59375 C 37.875 -65.53125 39.03125 -64.640625 39.03125 -58.40625 L 39.03125 -41.515625 C 35.921875 -43.46875 31.828125 -44.984375 26.9375 -44.984375 C 11.640625 -44.890625 3.203125 -33.515625 3.203125 -21.15625 C 3.203125 -8.625 11.828125 0.890625 22.84375 0.984375 Z M 9.875 -26.5 C 9.875 -35.921875 14.765625 -43.296875 24.1875 -43.296875 C 31.65625 -43.296875 38.234375 -36.890625 39.03125 -31.125 L 39.03125 -9.328125 C 35.5625 -5.78125 31.46875 -3.375 26.84375 -3.375 C 14.765625 -3.375 9.875 -16.09375 9.875 -26.5 Z M 9.875 -26.5 "/></g></g></g><g fill="#fefefe" fill-opacity="1"><g transform="translate(548.337349, 513.240045)"><g><path d="M 5.78125 -34.046875 L 20 0 L 23.734375 0 L 36.8125 -33.875 C 39.390625 -40.71875 40.8125 -42.5 43.296875 -43.296875 L 43.296875 -44.453125 L 34.140625 -44.453125 L 34.140625 -43.296875 C 37.25 -42.671875 37.609375 -39.734375 35.390625 -33.875 L 24.890625 -6.484375 L 13.25 -34.046875 C 10.40625 -40.71875 9.6875 -42.5 12.359375 -43.296875 L 12.359375 -44.453125 L -0.4375 -44.453125 L -0.4375 -43.296875 C 1.421875 -42.5 3.015625 -40.71875 5.78125 -34.046875 Z M 5.78125 -34.046875 "/></g></g></g><g fill="#fefefe" fill-opacity="1"><g transform="translate(591.186398, 513.240045)"><g><path d="M 2.84375 0 L 16.890625 0 L 16.890625 -1.15625 C 14.21875 -1.953125 13.34375 -4 13.34375 -11.296875 L 13.34375 -44.546875 L 12.625 -45.171875 L 2.84375 -40.890625 L 2.84375 -39.921875 C 5.328125 -38.859375 6.40625 -37.96875 6.40625 -31.734375 L 6.40625 -11.296875 C 6.40625 -4 5.59375 -1.953125 2.84375 -1.15625 Z M 4.453125 -55.484375 C 4.453125 -52.8125 6.578125 -50.59375 9.328125 -50.59375 C 12.09375 -50.59375 14.21875 -52.8125 14.21875 -55.484375 C 14.21875 -58.328125 12.1875 -60.453125 9.328125 -60.453125 C 6.578125 -60.453125 4.453125 -58.328125 4.453125 -55.484375 Z M 4.453125 -55.484375 "/></g></g></g><g fill="#fefefe" fill-opacity="1"><g transform="translate(611.188578, 513.240045)"><g><path d="M 20.09375 0.796875 C 30.765625 0.71875 36.359375 -5.59375 36.359375 -13.0625 C 36.359375 -21.953125 28.1875 -24 21.421875 -26.234375 C 14.40625 -28.53125 8.71875 -30.84375 8.71875 -36.453125 C 8.71875 -40.984375 12.625 -43.921875 18.671875 -43.921875 C 24.984375 -43.921875 30.671875 -39.828125 33.515625 -33.421875 L 34.40625 -33.609375 L 34.046875 -42.671875 C 31.296875 -43.828125 26.046875 -45.078125 20.265625 -45.078125 C 9.953125 -45.078125 4.09375 -39.65625 4.09375 -32.625 C 4.09375 -24.53125 10.140625 -22.234375 18.578125 -19.5625 C 25.421875 -17.34375 31.65625 -15.296875 31.65625 -8.890625 C 31.65625 -3.90625 27.5625 -0.625 22.046875 -0.625 C 13.953125 -0.71875 7.640625 -5.78125 3.90625 -14.21875 L 3.109375 -14.046875 L 3.90625 -3.296875 C 6.84375 -1.328125 12.984375 0.796875 20.09375 0.796875 Z M 20.09375 0.796875 "/></g></g></g><g fill="#fefefe" fill-opacity="1"><g transform="translate(650.748391, 513.240045)"><g><path d="M 26.5 0.890625 C 36.984375 0.890625 49.703125 -7.296875 49.703125 -22.5 C 49.703125 -38.3125 37.515625 -45.078125 26.5 -45.078125 C 14.3125 -45.078125 3.203125 -35.46875 3.203125 -21.609375 C 3.203125 -6.140625 15.203125 0.890625 26.5 0.890625 Z M 10.046875 -26.671875 C 10.046875 -35.5625 14.140625 -43.03125 23.203125 -43.390625 C 34.84375 -44.015625 42.9375 -28.71875 42.9375 -17.25 C 42.9375 -8.625 38.671875 -0.984375 29.15625 -0.984375 C 17.34375 -0.984375 10.046875 -15.375 10.046875 -26.671875 Z M 10.046875 -26.671875 "/></g></g></g><g fill="#fefefe" fill-opacity="1"><g transform="translate(704.265256, 513.240045)"><g><path d="M 2.84375 0 L 16.890625 0 L 16.890625 -1.15625 C 14.140625 -1.953125 13.34375 -4 13.34375 -11.296875 L 13.34375 -28.984375 L 13.421875 -28.984375 C 13.6875 -33.25 16.890625 -38.234375 19.46875 -40.09375 C 24.71875 -38.578125 28.1875 -37.609375 30.578125 -37.609375 C 33.78125 -37.609375 35.734375 -40.71875 35.734375 -42.671875 C 35.734375 -44.1875 33.515625 -45.078125 29.96875 -45.078125 C 25.6875 -45.078125 22.578125 -43.921875 19.828125 -41.875 C 17.15625 -39.921875 14.765625 -36.890625 13.34375 -33.421875 L 13.34375 -44.546875 L 12.53125 -45.171875 L 2.84375 -40.890625 L 2.84375 -39.921875 C 5.25 -38.859375 6.40625 -37.96875 6.40625 -31.734375 L 6.40625 -11.296875 C 6.40625 -4 5.59375 -1.953125 2.84375 -1.15625 Z M 2.84375 0 "/></g></g></g><g fill="#fefefe" fill-opacity="1"><g transform="translate(741.602584, 513.240045)"><g><path d="M 20.09375 0.796875 C 30.765625 0.71875 36.359375 -5.59375 36.359375 -13.0625 C 36.359375 -21.953125 28.1875 -24 21.421875 -26.234375 C 14.40625 -28.53125 8.71875 -30.84375 8.71875 -36.453125 C 8.71875 -40.984375 12.625 -43.921875 18.671875 -43.921875 C 24.984375 -43.921875 30.671875 -39.828125 33.515625 -33.421875 L 34.40625 -33.609375 L 34.046875 -42.671875 C 31.296875 -43.828125 26.046875 -45.078125 20.265625 -45.078125 C 9.953125 -45.078125 4.09375 -39.65625 4.09375 -32.625 C 4.09375 -24.53125 10.140625 -22.234375 18.578125 -19.5625 C 25.421875 -17.34375 31.65625 -15.296875 31.65625 -8.890625 C 31.65625 -3.90625 27.5625 -0.625 22.046875 -0.625 C 13.953125 -0.71875 7.640625 -5.78125 3.90625 -14.21875 L 3.109375 -14.046875 L 3.90625 -3.296875 C 6.84375 -1.328125 12.984375 0.796875 20.09375 0.796875 Z M 20.09375 0.796875 "/></g></g></g></svg>