<?xml version="1.0" encoding="UTF-8"?>
<svg id="Layer_1" data-name="Layer 1" xmlns="http://www.w3.org/2000/svg" version="1.1" viewBox="0 0 1080 301.9">
  <defs>
    <style>
      .cls-1 {
        fill: #f5a604;
      }

      .cls-1, .cls-2 {
        stroke-width: 0px;
      }

      .cls-3 {
        stroke-miterlimit: 7;
        stroke-width: 6.6px;
      }

      .cls-3, .cls-4 {
        fill: none;
        stroke: #343434;
      }

      .cls-2 {
        fill: #fefefe;
      }

      .cls-4 {
        stroke-miterlimit: 5.5;
        stroke-width: 3.7px;
      }
    </style>
  </defs>
  <path class="cls-3" d="M7.1,151.4c6.2-.4,10.6-1,13.3-1.8,2.7-.8,4.5-2.4,5.6-4.7,1.1-2.4,1.6-6.3,1.6-11.8V32.7c0-5.5-.5-9.4-1.6-11.8-1-2.4-2.8-4-5.5-4.8-2.6-.8-7.1-1.4-13.4-1.8v-5.2h61.8v5.2c-6.3.4-10.8,1-13.4,1.8-2.6.8-4.4,2.4-5.5,4.8-1,2.4-1.5,6.3-1.5,11.8v51.4l59.9-54.4c2.7-2.4,4-4.8,4-7.2,0-4.8-5.8-7.5-17.5-8.2v-5.2h56.9v5.2c-5.9.6-10.8,1.9-14.6,4-3.8,2.1-9.1,6.3-16,12.7l-40.3,36.2,57.2,71.7c3.4,4.2,7.1,7.4,11.2,9.4,4.1,2,7.5,3,10.3,3v5.3h-62.4v-5.3c10.4-.6,15.6-3.2,15.6-7.8s-1.5-5.9-4.4-9.7l-42.6-52.5-17.3,15.4v36.2c0,5.5.5,9.4,1.5,11.8,1.1,2.4,2.9,3.9,5.6,4.7,2.7.8,7.1,1.4,13.3,1.8v5.3H7.1v-5.3ZM161.7,151.4c5.8-.6,9.6-1.6,11.5-3.1,1.9-1.5,2.9-4.1,2.9-7.9V33.5c0-2.5-.5-4.3-1.5-5.4-1-1.1-2.6-1.6-5-1.6h-7.8v-4.2l26.4-16.5h6.5v134.6c0,3.8.9,6.4,2.8,7.9,1.9,1.5,5.7,2.5,11.3,3.1v5.3h-47.1v-5.3ZM285.3,145.9c-12.9,9-24.6,13.5-35,13.5s-15.8-1.9-20.9-5.8c-5-3.9-7.6-9.5-7.6-16.8s2.6-13.1,7.9-17.8c5.3-4.7,12.4-8.4,21.3-11.2,8.9-2.7,20.2-5.2,33.8-7.5v-12.6c0-7.9-1.1-13.4-3.3-16.6-2.2-3.2-6.1-4.7-11.9-4.7-12.1,0-19.4,5.1-21.9,15.4-1.8,6.8-5.3,10.1-10.6,10.1s-8.2-3.2-8.2-9.5,1.7-8,5.1-11.7c3.4-3.7,8.3-6.7,14.6-9,6.3-2.3,13.7-3.4,22-3.4,21.9,0,32.9,9.9,32.9,29.8v49.5c0,3.9.6,6.8,1.7,8.7,1.1,1.8,2.8,2.7,5.1,2.7s4.8-.8,7.8-2.4v7.6c-4.6,3.1-10.1,4.6-16.4,4.6s-8-1.1-10.9-3.2c-2.9-2.2-4.7-5.5-5.6-9.8ZM284.9,108.4c-14.2,2.1-24.9,5-32.1,8.9-7.1,3.8-10.7,9.5-10.7,17.1s1.4,8.4,4.1,10.8c2.7,2.4,6.4,3.6,10.9,3.6,8,0,17.3-3.7,27.9-11v-29.3ZM396,82c-2.1,0-3.9-.4-5.2-1.2-1.3-.9-2.9-2.2-4.7-4-1.2-1.4-2.4-2.5-3.6-3.2-1.1-.8-2.4-1.2-3.8-1.2-2.7,0-5.6.9-8.7,2.7-3.1,1.8-5.8,4.5-8,8v57.4c0,3.8.9,6.4,2.8,7.9,1.9,1.5,5.7,2.5,11.3,3.1v5.3h-47.1v-5.3c5.8-.6,9.6-1.6,11.5-3.1,1.9-1.5,2.9-4.1,2.9-7.9v-54.4c0-2.5-.5-4.3-1.5-5.4-1-1.1-2.6-1.6-5-1.6h-7.8v-4.2l26.4-16.5h6.5v14c3.7-4.4,8-7.8,13.1-10.2,5.1-2.5,10.1-3.7,15-3.7s9.6,1.2,12.3,3.7c2.7,2.5,4,5.5,4,9.2s-1,6-2.9,7.9c-1.9,1.9-4.4,2.8-7.5,2.8ZM437.7,12.4c3.7,0,6.7,1.2,9,3.5,2.3,2.3,3.5,5.2,3.5,8.5s-1.2,6-3.5,8.3c-2.3,2.3-5.3,3.4-9,3.4s-6.6-1.2-9-3.4c-2.3-2.3-3.4-5.1-3.4-8.3s1.2-6.2,3.4-8.5c2.3-2.3,5.3-3.5,9-3.5ZM413.7,151.4c5.8-.6,9.6-1.6,11.5-3.1,1.9-1.5,2.9-4.1,2.9-7.9v-54.4c0-2.5-.5-4.3-1.5-5.4-1-1.1-2.6-1.6-5-1.6h-7.8v-4.2l26.4-16.5h6.5v82.1c0,3.8.9,6.4,2.8,7.9,1.9,1.5,5.7,2.5,11.3,3.1v5.3h-47.1v-5.3ZM528.2,155c-2.5,1.1-5.5,2.1-9,2.8-3.4.8-6.8,1.2-10.2,1.2-7.7,0-13.8-1.9-18.1-5.6-4.4-3.7-6.5-10.1-6.5-19.1v-64.1h-14.1v-4.4c7.9-2.8,13.7-7,17.7-12.7,3.9-5.6,6.8-13.2,8.5-22.8h6.5v31.2h25.3v8.7h-25.3v64.3c0,5,.9,8.8,2.8,11.2,1.9,2.4,5,3.6,9.4,3.6s8.7-.9,13.1-2.6v8.2ZM580.1,175.2c-6.2,15.6-16,23.4-29.5,23.4s-10.6-1.2-14.6-3.7c-3.9-2.4-5.9-5.6-5.9-9.6s1-5,3-6.9c2-2,4.4-2.9,7.4-2.9s3.8.4,5,1.2c1.3.9,2.9,2.3,4.9,4.2,1.2,1.5,2.5,2.7,3.7,3.6,1.2.9,2.6,1.3,4.1,1.3,2.7,0,5.2-1.3,7.5-3.9,2.3-2.6,4.3-6,6-10.4l4.8-12.5-28-73.8c-1.9-4.9-3.4-8.5-4.6-10.7-1.2-2.3-2.7-4-4.5-5.3-1.8-1.3-4.3-2-7.6-2.3v-5.3h46.4v5.3c-4.6.3-7.9,1-9.8,2.1-1.9,1.1-2.8,2.8-2.8,5s1,5.6,3,11.2l18.3,48.6,19.4-48.6c1.5-3.9,2.3-7.1,2.3-9.5s-1-4.9-3.1-6.2c-2-1.3-5.2-2.2-9.6-2.6v-5.3h37.3v5.3c-3.9.5-7.1,2.1-9.5,4.7-2.4,2.6-4.9,7.1-7.6,13.6l-36.1,90.1Z"/>
  <path class="cls-1" d="M7.1,151.4c6.2-.4,10.6-1,13.3-1.8,2.7-.8,4.5-2.4,5.6-4.8,1.1-2.4,1.6-6.3,1.6-11.8V32.7c0-5.5-.5-9.4-1.6-11.8-1.1-2.4-2.9-4-5.5-4.8-2.6-.8-7.1-1.4-13.4-1.8v-5.3h61.8v5.3c-6.3.4-10.8,1-13.4,1.8-2.6.8-4.4,2.4-5.5,4.8-1.1,2.4-1.6,6.3-1.6,11.8v51.5l59.9-54.4c2.7-2.4,4-4.8,4-7.2,0-4.8-5.8-7.5-17.5-8.2v-5.3h56.9v5.3c-5.9.6-10.8,1.9-14.6,4-3.8,2.1-9.1,6.3-16,12.7l-40.3,36.3,57.1,71.7c3.4,4.2,7.1,7.3,11.2,9.4,4.1,2,7.5,3.1,10.4,3.1v5.3h-62.4v-5.3c10.4-.6,15.6-3.2,15.6-7.8s-1.5-5.9-4.4-9.7l-42.6-52.5-17.3,15.4v36.3c0,5.5.5,9.4,1.6,11.8,1.1,2.4,2.9,4,5.6,4.8,2.7.8,7.1,1.4,13.3,1.8v5.3H7.1v-5.3Z"/>
  <path class="cls-1" d="M161.7,151.4c5.8-.6,9.6-1.6,11.5-3.1,1.9-1.5,2.9-4.1,2.9-7.9V33.5c0-2.5-.5-4.3-1.5-5.4-1-1.1-2.7-1.6-5.1-1.6h-7.8v-4.2l26.4-16.5h6.5v134.6c0,3.8.9,6.4,2.9,7.9,1.9,1.5,5.7,2.5,11.3,3.1v5.3h-47v-5.3Z"/>
  <path class="cls-1" d="M285.3,145.9c-12.9,9-24.6,13.5-35,13.5s-15.8-1.9-20.9-5.8c-5.1-3.9-7.6-9.5-7.6-16.8s2.6-13.1,7.9-17.8c5.3-4.7,12.4-8.4,21.3-11.2,8.9-2.8,20.2-5.3,33.9-7.5v-12.6c0-7.9-1.1-13.4-3.3-16.6-2.2-3.2-6.2-4.8-11.9-4.8-12.1,0-19.4,5.1-21.9,15.4-1.8,6.8-5.3,10.1-10.5,10.1s-8.2-3.2-8.2-9.5,1.7-8,5.2-11.7c3.5-3.7,8.3-6.7,14.7-9,6.3-2.3,13.6-3.4,21.9-3.4,21.9,0,32.9,9.9,32.9,29.7v49.6c0,3.9.6,6.8,1.7,8.6s2.8,2.8,5.1,2.8,4.9-.8,7.8-2.3v7.6c-4.7,3.1-10.1,4.6-16.5,4.6s-8-1.1-10.9-3.3c-2.9-2.2-4.7-5.4-5.6-9.8ZM284.9,108.4c-14.2,2.1-24.9,5.1-32.1,8.9-7.2,3.8-10.8,9.5-10.8,17.1s1.4,8.4,4.1,10.8c2.8,2.4,6.4,3.6,10.9,3.6,8,0,17.3-3.7,27.8-11v-29.3Z"/>
  <path class="cls-1" d="M396,82c-2.1,0-3.8-.4-5.2-1.3-1.3-.8-2.9-2.2-4.8-4-1.3-1.4-2.5-2.5-3.6-3.3-1.1-.8-2.4-1.2-3.8-1.2-2.7,0-5.6.9-8.6,2.8-3.1,1.8-5.8,4.5-8,8v57.4c0,3.8.9,6.4,2.9,7.9,1.9,1.5,5.7,2.5,11.3,3.1v5.3h-47v-5.3c5.8-.6,9.6-1.6,11.5-3.1,1.9-1.5,2.9-4.1,2.9-7.9v-54.4c0-2.5-.5-4.3-1.5-5.4-1-1.1-2.7-1.6-5.1-1.6h-7.8v-4.2l26.4-16.4h6.5v13.9c3.7-4.4,8-7.8,13.1-10.2,5.1-2.5,10-3.7,15-3.7s9.6,1.2,12.2,3.7,4,5.5,4,9.2-1,6-2.9,7.9-4.4,2.8-7.5,2.8Z"/>
  <path class="cls-1" d="M437.8,12.4c3.7,0,6.6,1.2,9,3.5,2.3,2.3,3.5,5.2,3.5,8.5s-1.2,6-3.5,8.3-5.3,3.5-9,3.5-6.6-1.2-9-3.5c-2.3-2.3-3.5-5.1-3.5-8.3s1.2-6.2,3.5-8.5c2.3-2.3,5.3-3.5,9-3.5ZM413.7,151.4c5.8-.6,9.6-1.6,11.5-3.1,1.9-1.5,2.9-4.1,2.9-7.9v-54.4c0-2.5-.5-4.3-1.5-5.4-1-1.1-2.7-1.6-5.1-1.6h-7.8v-4.2l26.4-16.4h6.5v82c0,3.8.9,6.4,2.9,7.9,1.9,1.5,5.7,2.5,11.3,3.1v5.3h-47v-5.3Z"/>
  <path class="cls-1" d="M528.2,155c-2.5,1.1-5.5,2.1-9,2.8-3.4.8-6.9,1.2-10.2,1.2-7.7,0-13.8-1.9-18.1-5.6-4.4-3.7-6.5-10.1-6.5-19.1v-64.1h-14.1v-4.4c7.9-2.8,13.8-7,17.7-12.6,3.9-5.6,6.8-13.2,8.4-22.8h6.5v31.2h25.3v8.6h-25.3v64.3c0,5.1.9,8.8,2.9,11.2,1.9,2.4,5,3.6,9.4,3.6s8.7-.8,13.1-2.5v8.2Z"/>
  <path class="cls-1" d="M580.1,175.2c-6.2,15.6-16,23.4-29.5,23.4s-10.6-1.2-14.6-3.7c-3.9-2.5-5.9-5.7-5.9-9.6s1-5,3-7c2-2,4.4-2.9,7.4-2.9s3.8.4,5.1,1.3c1.3.8,2.9,2.3,4.9,4.2,1.3,1.5,2.5,2.7,3.7,3.6,1.2.8,2.6,1.3,4.1,1.3,2.7,0,5.2-1.3,7.5-3.9,2.3-2.6,4.3-6.1,6-10.4l4.9-12.5-28-73.8c-1.8-4.9-3.3-8.5-4.5-10.8-1.2-2.3-2.7-4-4.5-5.3-1.8-1.3-4.3-2-7.6-2.3v-5.3h46.4v5.3c-4.6.3-7.9,1-9.8,2.1-1.9,1.1-2.8,2.8-2.8,5.1s1,5.5,2.9,11.2l18.4,48.5,19.4-48.5c1.6-3.9,2.3-7.1,2.3-9.5s-1-4.9-3.1-6.2-5.2-2.2-9.6-2.6v-5.3h37.3v5.3c-3.9.6-7.1,2.1-9.5,4.8-2.4,2.6-4.9,7.1-7.6,13.6l-36.1,90.1Z"/>
  <path class="cls-4" d="M4.6,278.4h18.7v-1.5c-3.7-1.1-4.7-3.8-4.7-13.5v-23.6h.1c.4-5.7,4.6-12.3,8.1-14.8,7,2,11.6,3.3,14.8,3.3s6.9-4.1,6.9-6.7-3-3.2-7.7-3.2-9.8,1.6-13.5,4.3c-3.5,2.6-6.7,6.6-8.7,11.3v-14.8l-1-.8-12.9,5.7v1.3c3.2,1.4,4.7,2.6,4.7,10.9v27.3c0,9.7-1.1,12.4-4.7,13.5v1.5ZM82.9,279.6c12.7,0,21.9-8.4,28-16.7l-1.1-1c-5.4,6.2-12,10.3-21.1,10.3-15.4,0-25.5-11.1-25.5-27.4s.1-3.7.4-5.5h46.3c-.3-11.3-9-21-23.9-21s-31.2,12.9-31.2,32.2,15.1,29.1,28.1,29.1ZM64,237.7c1.9-10,8-17.4,18.1-17.3,10.8,0,17.2,9.4,18.3,17.3h-36.5ZM141,279.5c14.2-.1,21.7-8.5,21.7-18.5s-10.9-14.6-19.9-17.5c-9.3-3.1-17-6.2-17-13.6s5.2-10,13.3-10,16,5.4,19.8,14l1.2-.2-.5-12.1c-3.7-1.5-10.7-3.2-18.4-3.2-13.7,0-21.6,7.2-21.6,16.6s8.1,13.9,19.3,17.4c9.1,3,17.4,5.7,17.4,14.2s-5.4,11-12.8,11c-10.8-.1-19.2-6.9-24.2-18.1l-1.1.2,1.1,14.3c3.9,2.6,12.1,5.5,21.6,5.5ZM189.4,279.6c7,0,13.1-5.1,18.1-10.9l-1.1-1.1c-3.9,4.6-8.1,6.2-11.4,6.2-5.1,0-8.4-3.1-8.4-11.1v-41.8h17.4l.6-1.7h-18v-14.6h-1.6l-15.2,14.6v1.7h7.6v41.8c0,12.3,4.5,17,12,17ZM257.4,278.4h10.3v-1.5c-3.7-1.1-4.7-3.8-4.7-13.5v-23.7c0-13.4-6.7-21.4-21-21.4s-19,5.1-25.7,13.5l1.1,1c5.9-7.2,12.8-10.6,19.9-10.6,10.1,0,16,5.4,16.6,16.8l-15.4,4.1c-14.1,3.9-26.6,8.5-26.6,20.9s7.8,15.5,16.6,15.5,21.7-11.5,25.4-26.1v21.3c0,2.3,1.2,3.6,3.6,3.6ZM220.8,260.7c-.1-9.7,9.3-13.6,18.1-16.1l14.9-4.1v3.6c-.1,12.4-8.3,28.5-21,28.5s-12.1-4.1-12.1-11.8ZM296.4,279.6c8.9,0,17.1-5.7,23.1-12v6c0,3.4,1.3,4.7,3.9,4.7h10.1v-1.5c-3.7-1.1-4.7-3.8-4.7-13.5v-44.3l-1.1-.8-12.9,5.7v1.3c3.2,1.4,4.7,2.6,4.7,10.9v29.3c-5.4,5.7-11.7,10.1-18.8,10.1s-13.3-6.1-13.3-19.6v-36.9l-1.1-.8-12.9,5.7v1.3c3.2,1.4,4.7,2.6,4.7,10.9v21.9c0,13.7,5.7,21.6,18.1,21.6ZM341.5,278.4h18.7v-1.5c-3.7-1.1-4.7-3.8-4.7-13.5v-23.6h.1c.4-5.7,4.6-12.3,8.1-14.8,7,2,11.6,3.3,14.8,3.3s6.9-4.1,6.9-6.7-3-3.2-7.7-3.2-9.8,1.6-13.5,4.3c-3.5,2.6-6.7,6.6-8.7,11.3v-14.8l-1-.8-12.9,5.7v1.3c3.2,1.4,4.7,2.6,4.7,10.9v27.3c0,9.7-1.1,12.4-4.7,13.5v1.5ZM437.1,278.4h10.3v-1.5c-3.7-1.1-4.7-3.8-4.7-13.5v-23.7c0-13.4-6.7-21.4-21-21.4s-19,5.1-25.7,13.5l1.1,1c5.9-7.2,12.8-10.6,19.9-10.6s16,5.4,16.6,16.8l-15.4,4.1c-14.1,3.9-26.6,8.5-26.6,20.9s7.8,15.5,16.6,15.5,21.7-11.5,25.4-26.1v21.3c0,2.3,1.2,3.6,3.6,3.6ZM400.5,260.7c-.1-9.7,9.3-13.6,18.1-16.1l14.9-4.1v3.6c-.1,12.4-8.3,28.5-21,28.5s-12.1-4.1-12.1-11.8ZM454.1,278.4h18.7v-1.5c-3.6-1.1-4.7-3.8-4.7-13.5v-32.2c6.1-5,12.4-8.9,19-8.9,10.4,0,15.6,6.8,15.6,19.1v22.1c0,9.7-1,12.4-4.7,13.5v1.5h18.7v-1.5c-3.7-1.1-4.7-3.8-4.7-13.5v-24.4c0-13.9-7.1-20.6-18.7-20.6s-18.3,5.4-25.2,10.9v-10.2l-.9-.8-13.1,5.7v1.3c3.3,1.4,4.8,2.6,4.8,10.9v27.3c0,9.7-1.1,12.4-4.8,13.5v1.5ZM541.9,279.6c7,0,13.1-5.1,18.1-10.9l-1.1-1.1c-3.9,4.6-8.1,6.2-11.4,6.2-5.1,0-8.4-3.1-8.4-11.1v-41.8h17.4l.6-1.7h-18v-14.6h-1.7l-15.2,14.6v1.7h7.6v41.8c0,12.3,4.5,17,12,17ZM634.8,278.4h10.3v-1.5c-3.7-1.1-4.7-3.8-4.7-13.5v-23.7c0-13.4-6.7-21.4-21-21.4s-19,5.1-25.7,13.5l1.1,1c5.9-7.2,12.8-10.6,19.9-10.6,10.1,0,16,5.4,16.6,16.8l-15.4,4.1c-14.1,3.9-26.6,8.5-26.6,20.9s7.8,15.5,16.6,15.5,21.7-11.5,25.4-26.1v21.3c0,2.3,1.2,3.6,3.6,3.6ZM598.2,260.7c-.1-9.7,9.3-13.6,18.1-16.1l14.9-4.1v3.6c-.1,12.4-8.3,28.5-21,28.5s-12.1-4.1-12.1-11.8ZM678.5,279.7c8.4.1,15.7-5.6,21.6-11.6v6.7c0,2.3,1.3,3.6,3.6,3.6h10.4v-1.5c-3.7-1.1-4.7-3.8-4.7-13.5v-79.9l-1-.8-13.1,5.7v1.3c3.2,1.4,4.7,2.6,4.7,10.9v22.5c-4.1-2.6-9.6-4.6-16.1-4.6-20.4.1-31.7,15.3-31.7,31.8s11.5,29.4,26.2,29.5ZM661.1,243c0-12.6,6.5-22.4,19.1-22.4s18.7,8.5,19.8,16.2v29.1c-4.6,4.7-10.1,7.9-16.2,7.9-16.1,0-22.6-16.9-22.6-30.8ZM724.4,233l19,45.4h5l17.4-45.2c3.4-9.1,5.3-11.5,8.7-12.6v-1.5h-12.2v1.5c4.1.8,4.6,4.7,1.7,12.6l-14,36.5-15.5-36.8c-3.8-8.9-4.7-11.3-1.2-12.3v-1.5h-17v1.5c2.5,1.1,4.6,3.4,8.3,12.3ZM777.7,278.4h18.7v-1.5c-3.6-1.1-4.7-3.8-4.7-13.5v-44.3l-.9-.8-13.1,5.7v1.3c3.3,1.4,4.7,2.6,4.7,10.9v27.3c0,9.7-1.1,12.4-4.7,13.5v1.5ZM779.8,204.4c0,3.6,2.8,6.5,6.5,6.5s6.5-2.9,6.5-6.5-2.7-6.6-6.5-6.6-6.5,2.8-6.5,6.6ZM827.3,279.5c14.2-.1,21.7-8.5,21.7-18.5s-10.9-14.6-19.9-17.5c-9.3-3.1-17-6.2-17-13.6s5.2-10,13.3-10,16,5.4,19.8,14l1.2-.2-.5-12.1c-3.7-1.5-10.7-3.2-18.4-3.2-13.7,0-21.6,7.2-21.6,16.6s8.1,13.9,19.3,17.4c9.1,3,17.4,5.7,17.4,14.2s-5.4,11-12.8,11c-10.8-.1-19.2-6.9-24.2-18.1l-1.1.2,1.1,14.3c3.9,2.6,12.1,5.5,21.6,5.5ZM888.6,279.6c14,0,30.9-10.9,30.9-31.2s-16.2-30.1-30.9-30.1-31.1,12.8-31.1,31.3,16,30,31.1,30ZM866.7,242.8c0-11.8,5.4-21.8,17.5-22.3,15.5-.8,26.3,19.6,26.3,34.8s-5.7,21.7-18.4,21.7-25.5-19.2-25.5-34.3ZM928.4,278.4h18.7v-1.5c-3.7-1.1-4.7-3.8-4.7-13.5v-23.6h.1c.4-5.7,4.6-12.3,8.1-14.8,7,2,11.6,3.3,14.8,3.3s6.9-4.1,6.9-6.7-3-3.2-7.7-3.2-9.8,1.6-13.5,4.3c-3.5,2.6-6.7,6.6-8.7,11.3v-14.8l-1-.8-12.9,5.7v1.3c3.2,1.4,4.7,2.6,4.7,10.9v27.3c0,9.7-1.1,12.4-4.7,13.5v1.5ZM1001.2,279.5c14.2-.1,21.7-8.5,21.7-18.5s-10.9-14.6-19.9-17.5c-9.3-3.1-17-6.2-17-13.6s5.2-10,13.3-10,16,5.4,19.8,14l1.2-.2-.5-12.1c-3.7-1.5-10.7-3.2-18.4-3.2-13.7,0-21.6,7.2-21.6,16.6s8.1,13.9,19.3,17.4c9.1,3,17.4,5.7,17.4,14.2s-5.4,11-12.8,11c-10.8-.1-19.2-6.9-24.2-18.1l-1.1.2,1.1,14.3c3.9,2.6,12.1,5.5,21.6,5.5Z"/>
  <path class="cls-2" d="M4.6,278.4h18.7v-1.5c-3.7-1.1-4.7-3.8-4.7-13.5v-23.6h.1c.4-5.7,4.6-12.3,8.1-14.8,7,2,11.6,3.3,14.8,3.3s6.9-4.1,6.9-6.8-3-3.2-7.7-3.2-9.9,1.5-13.5,4.3c-3.6,2.6-6.8,6.6-8.6,11.3v-14.8l-1.1-.8-12.9,5.7v1.3c3.2,1.4,4.8,2.6,4.8,10.9v27.3c0,9.7-1.1,12.5-4.8,13.5v1.5Z"/>
  <path class="cls-2" d="M82.9,279.6c12.7,0,21.9-8.4,28-16.7l-1.1-1.1c-5.5,6.2-12,10.3-21.1,10.3-15.4,0-25.5-11.1-25.5-27.4s.1-3.7.4-5.5h46.4c-.4-11.3-9-21-24-21s-31.2,12.9-31.2,32.3,15,29,28.1,29ZM64,237.7c1.9-10,8.1-17.4,18.1-17.3,10.8,0,17.2,9.4,18.4,17.3h-36.5Z"/>
  <path class="cls-2" d="M141,279.4c14.2-.1,21.7-8.5,21.7-18.5s-10.9-14.6-19.9-17.6c-9.4-3.1-16.9-6.1-16.9-13.6s5.2-10,13.3-10,16,5.5,19.8,14l1.2-.3-.5-12.1c-3.7-1.5-10.7-3.2-18.4-3.2-13.8,0-21.6,7.2-21.6,16.6s8.1,13.9,19.3,17.4c9.1,3,17.4,5.7,17.4,14.2s-5.5,11-12.8,11c-10.8-.1-19.2-6.9-24.2-18.1l-1.1.2,1.1,14.3c3.9,2.6,12.1,5.5,21.6,5.5Z"/>
  <path class="cls-2" d="M189.4,279.6c7,0,13-5.1,18.1-10.9l-1.1-1.1c-3.9,4.6-8.1,6.2-11.4,6.2-5.1,0-8.4-3.1-8.4-11.1v-41.8h17.4l.6-1.7h-18v-14.6h-1.7l-15.2,14.6v1.7h7.6v41.8c0,12.3,4.5,17,12,17Z"/>
  <path class="cls-2" d="M257.4,278.4h10.3v-1.5c-3.7-1.1-4.7-3.8-4.7-13.5v-23.7c0-13.4-6.6-21.3-21-21.3s-19,5.1-25.7,13.5l1.1.9c5.9-7.2,12.8-10.5,19.9-10.5s16,5.3,16.6,16.8l-15.4,4.1c-14.1,3.9-26.6,8.5-26.6,20.9s7.8,15.5,16.6,15.5,21.7-11.5,25.4-26.1v21.3c0,2.3,1.2,3.6,3.6,3.6ZM220.8,260.7c-.1-9.7,9.4-13.6,18.1-16.1l14.9-4v3.6c-.1,12.4-8.3,28.4-21,28.4s-12.1-4.1-12.1-11.9Z"/>
  <path class="cls-2" d="M296.4,279.6c8.9,0,17.1-5.7,23.1-12v6c0,3.4,1.3,4.8,3.9,4.8h10.1v-1.5c-3.7-1.1-4.7-3.8-4.7-13.5v-44.3l-1.1-.8-12.9,5.7v1.3c3.2,1.4,4.8,2.6,4.8,10.9v29.3c-5.3,5.7-11.7,10.1-18.7,10.1s-13.3-6-13.3-19.6v-36.9l-1.1-.8-12.9,5.7v1.3c3.2,1.4,4.8,2.6,4.8,10.9v21.9c0,13.6,5.7,21.6,18.1,21.6Z"/>
  <path class="cls-2" d="M341.5,278.4h18.7v-1.5c-3.7-1.1-4.7-3.8-4.7-13.5v-23.6h.1c.4-5.7,4.6-12.3,8.1-14.8,7,2,11.6,3.3,14.8,3.3s6.9-4.1,6.9-6.8-3-3.2-7.7-3.2-9.9,1.5-13.5,4.3c-3.6,2.6-6.8,6.6-8.6,11.3v-14.8l-1.1-.8-12.9,5.7v1.3c3.2,1.4,4.8,2.6,4.8,10.9v27.3c0,9.7-1.1,12.5-4.8,13.5v1.5Z"/>
  <path class="cls-2" d="M437.1,278.4h10.3v-1.5c-3.7-1.1-4.7-3.8-4.7-13.5v-23.7c0-13.4-6.6-21.3-21-21.3s-19,5.1-25.7,13.5l1.1.9c5.9-7.2,12.8-10.5,19.9-10.5s16,5.3,16.6,16.8l-15.4,4.1c-14.1,3.9-26.6,8.5-26.6,20.9s7.8,15.5,16.6,15.5,21.7-11.5,25.4-26.1v21.3c0,2.3,1.2,3.6,3.6,3.6ZM400.5,260.7c-.1-9.7,9.4-13.6,18.1-16.1l14.9-4v3.6c-.1,12.4-8.3,28.4-21,28.4s-12.1-4.1-12.1-11.9Z"/>
  <path class="cls-2" d="M454.1,278.4h18.7v-1.5c-3.6-1.1-4.7-3.8-4.7-13.5v-32.2c6-5,12.4-8.9,19-8.9,10.4,0,15.6,6.8,15.6,19.1v22c0,9.7-1.1,12.5-4.8,13.5v1.5h18.7v-1.5c-3.7-1.1-4.7-3.8-4.7-13.5v-24.4c0-13.9-7.1-20.6-18.7-20.6s-18.3,5.3-25.1,10.9v-10.2l-1-.8-13,5.7v1.3c3.3,1.4,4.8,2.6,4.8,10.9v27.3c0,9.7-1.1,12.5-4.8,13.5v1.5Z"/>
  <path class="cls-2" d="M541.9,279.6c7,0,13-5.1,18.1-10.9l-1.1-1.1c-3.9,4.6-8.1,6.2-11.4,6.2-5.1,0-8.4-3.1-8.4-11.1v-41.8h17.4l.6-1.7h-18v-14.6h-1.7l-15.2,14.6v1.7h7.6v41.8c0,12.3,4.5,17,12,17Z"/>
  <path class="cls-2" d="M634.8,278.4h10.3v-1.5c-3.7-1.1-4.7-3.8-4.7-13.5v-23.7c0-13.4-6.6-21.3-21-21.3s-19,5.1-25.7,13.5l1.1.9c5.9-7.2,12.8-10.5,19.9-10.5s16,5.3,16.6,16.8l-15.4,4.1c-14.1,3.9-26.6,8.5-26.6,20.9s7.8,15.5,16.6,15.5,21.7-11.5,25.4-26.1v21.3c0,2.3,1.2,3.6,3.6,3.6ZM598.2,260.7c-.1-9.7,9.4-13.6,18.1-16.1l14.9-4v3.6c-.1,12.4-8.3,28.4-21,28.4s-12.1-4.1-12.1-11.9Z"/>
  <path class="cls-2" d="M678.4,279.7c8.4.1,15.8-5.6,21.6-11.6v6.8c0,2.3,1.3,3.6,3.6,3.6h10.4v-1.5c-3.7-1.1-4.7-3.8-4.7-13.5v-79.9l-1-.8-13,5.7v1.3c3.2,1.4,4.8,2.6,4.8,10.9v22.5c-4.1-2.6-9.6-4.6-16.1-4.6-20.4.1-31.6,15.3-31.6,31.8s11.5,29.4,26.2,29.5ZM661.1,243c0-12.6,6.5-22.4,19.1-22.4s18.7,8.5,19.8,16.2v29.1c-4.6,4.7-10.1,7.9-16.3,7.9-16.1,0-22.6-17-22.6-30.8Z"/>
  <path class="cls-2" d="M724.4,233l19,45.4h5l17.4-45.2c3.4-9.1,5.3-11.5,8.6-12.6v-1.5h-12.2v1.5c4.1.8,4.6,4.8,1.7,12.6l-14,36.5-15.5-36.8c-3.8-8.9-4.8-11.3-1.2-12.3v-1.5h-17.1v1.5c2.5,1.1,4.6,3.4,8.3,12.3Z"/>
  <path class="cls-2" d="M777.6,278.4h18.7v-1.5c-3.6-1.1-4.7-3.8-4.7-13.5v-44.3l-1-.8-13,5.7v1.3c3.3,1.4,4.8,2.6,4.8,10.9v27.3c0,9.7-1.1,12.5-4.8,13.5v1.5ZM779.8,204.4c0,3.6,2.8,6.5,6.5,6.5s6.5-3,6.5-6.5-2.7-6.6-6.5-6.6-6.5,2.8-6.5,6.6Z"/>
  <path class="cls-2" d="M827.3,279.4c14.2-.1,21.7-8.5,21.7-18.5s-10.9-14.6-19.9-17.6c-9.4-3.1-16.9-6.1-16.9-13.6s5.2-10,13.3-10,16,5.5,19.8,14l1.2-.3-.5-12.1c-3.7-1.5-10.7-3.2-18.4-3.2-13.8,0-21.6,7.2-21.6,16.6s8.1,13.9,19.3,17.4c9.1,3,17.4,5.7,17.4,14.2s-5.5,11-12.8,11c-10.8-.1-19.2-6.9-24.2-18.1l-1.1.2,1.1,14.3c3.9,2.6,12.1,5.5,21.6,5.5Z"/>
  <path class="cls-2" d="M888.6,279.6c14,0,30.9-10.9,30.9-31.2s-16.3-30.1-30.9-30.1-31.1,12.8-31.1,31.3,16,30,31.1,30ZM866.7,242.8c0-11.9,5.5-21.8,17.5-22.3,15.5-.8,26.3,19.6,26.3,34.9s-5.7,21.7-18.4,21.7-25.5-19.2-25.5-34.3Z"/>
  <path class="cls-2" d="M928.4,278.4h18.7v-1.5c-3.7-1.1-4.7-3.8-4.7-13.5v-23.6h.1c.4-5.7,4.6-12.3,8.1-14.8,7,2,11.6,3.3,14.8,3.3s6.9-4.1,6.9-6.8-3-3.2-7.7-3.2-9.9,1.5-13.5,4.3c-3.6,2.6-6.8,6.6-8.6,11.3v-14.8l-1.1-.8-12.9,5.7v1.3c3.2,1.4,4.8,2.6,4.8,10.9v27.3c0,9.7-1.1,12.5-4.8,13.5v1.5Z"/>
  <path class="cls-2" d="M1001.2,279.4c14.2-.1,21.7-8.5,21.7-18.5s-10.9-14.6-19.9-17.6c-9.4-3.1-16.9-6.1-16.9-13.6s5.2-10,13.3-10,16,5.5,19.8,14l1.2-.3-.5-12.1c-3.7-1.5-10.7-3.2-18.4-3.2-13.8,0-21.6,7.2-21.6,16.6s8.1,13.9,19.3,17.4c9.1,3,17.4,5.7,17.4,14.2s-5.5,11-12.8,11c-10.8-.1-19.2-6.9-24.2-18.1l-1.1.2,1.1,14.3c3.9,2.6,12.1,5.5,21.6,5.5Z"/>
</svg>